<svg xmlns="http://www.w3.org/2000/svg" viewBox="0 0 26 30" width="26" height="30"><path d="M17.16 2.752l1.343-2.36a.259.259 0 00-.106-.359.276.276 0 00-.367.103l-1.357 2.387a9.349 9.349 0 00-7.346 0L7.97.136A.27.27 0 007.808.01a.277.277 0 00-.206.023.265.265 0 00-.128.158.258.258 0 00.023.2l1.342 2.361a7.692 7.692 0 00-3.12 2.733A7.426 7.426 0 004.514 9.4h16.972a7.427 7.427 0 00-1.205-3.916 7.692 7.692 0 00-3.12-2.733zM4.515 22.048c0 .53.216 1.04.6 1.415.385.375.907.586 1.451.586h1.362v4.091c0 .244.048.486.143.711.095.226.235.431.412.604s.387.31.618.403a1.944 1.944 0 002.076-.403 1.814 1.814 0 00.555-1.315V24.05h2.537v4.091a1.852 1.852 0 00.555 1.315 1.943 1.943 0 002.694 0 1.814 1.814 0 00.555-1.315V24.05h1.363c.544 0 1.066-.211 1.45-.586.385-.375.601-.884.601-1.415V10.056H4.514v11.992zM1.902 9.738a1.93 1.93 0 00-1.344.543C.2 10.63 0 11.101 0 11.592v7.729c0 .244.048.485.143.71.096.227.236.432.412.604.177.173.387.31.618.404a1.945 1.945 0 002.077-.404 1.85 1.85 0 00.412-.603c.095-.226.144-.467.143-.711v-7.729c0-.492-.201-.963-.558-1.31a1.93 1.93 0 00-1.345-.545zm22.195 0a1.93 1.93 0 00-1.344.543c-.357.348-.557.82-.558 1.311v7.729c0 .244.048.485.143.71.096.227.236.432.412.604.177.173.387.31.618.404a1.945 1.945 0 002.077-.404A1.814 1.814 0 0026 19.32v-7.728c0-.492-.201-.963-.558-1.31a1.93 1.93 0 00-1.345-.545z" fill="#F8FFF5"/></svg>
