<svg xmlns="http://www.w3.org/2000/svg" viewBox="0 0 25 26" width="25" height="26"><path d="M12.456.97c.794 0 1.437.537 1.437 1.2v12.702l3.296-2.751c.561-.469 1.472-.469 2.033 0 .561.468.561 1.228 0 1.697l-5.75 4.8c-.561.468-1.471.468-2.033 0l-5.75-4.8c-.561-.469-.561-1.229 0-1.697.561-.469 1.472-.469 2.033 0l3.296 2.751V2.17c0-.662.644-1.2 1.438-1.2zm-10.063 18c.794 0 1.438.537 1.438 1.2v2.4h17.25v-2.4c0-.664.643-1.2 1.437-1.2s1.438.537 1.438 1.2v2.4c0 1.325-1.288 2.4-2.875 2.4H3.83c-1.588 0-2.875-1.075-2.875-2.4v-2.4c0-.664.643-1.2 1.437-1.2z" fill="#fff" stroke="#fff" stroke-width=".5" stroke-miterlimit="10" stroke-linecap="round" stroke-linejoin="round"/></svg>
